<svg class="img-fluid" id="outputsvg" xmlns="http://www.w3.org/2000/svg" style="transform: matrix(1, 0, 0, 1, 0, 0); transform-origin: 50% 50%; cursor: move; transition: transform 200ms ease-in-out 0s;" width="452" height="454" viewBox="0 0 4520 4540"><g id="l2ZVYIas9ofoeeoEIzv7ayM" fill="rgb(0,0,0)" style="transform: none;"><g><path id="ppsqbCvAs" d="M0 2270 l0 -2270 2260 0 2260 0 0 2270 0 2270 -2260 0 -2260 0 0 -2270z m2882 2076 l22 -16 -27 0 -27 0 0 -15 0 -15 -30 0 -30 0 0 9 0 10 -37 3 -38 3 40 23 40 22 32 -4 33 -5 22 -15z m-788 -19 l31 -22 -22 -3 -22 -3 -6 -20 -7 -21 -21 21 -22 20 -60 3 -60 3 55 28 55 28 24 -6 c14 -4 39 -16 55 -28z m347 7 l24 -27 -40 6 c-22 4 -49 7 -60 7 l-20 0 30 20 c38 25 37 25 66 -6z m824 6 l20 -9 -17 0 -18 -1 0 -15 0 -15 -19 0 -19 0 -5 20 -5 19 12 5 c16 7 28 6 51 -4z m355 0 l15 -10 -12 0 -13 0 0 -15 0 -15 -15 0 -15 0 0 18 c0 31 14 39 40 22z m-2908 -30 l-17 -30 -3 20 -3 20 -82 1 -82 1 25 8 25 8 77 1 77 1 -17 -30z m381 13 c-13 -2 -33 -2 -45 0 l-23 4 45 0 45 0 -22 -4z m-593 -23 l0 -10 -22 0 -23 0 15 10 c19 13 30 13 30 0z m2206 -77 l16 -11 -21 -11 c-11 -6 -29 -11 -39 -11 l-20 0 10 42 c5 23 14 49 21 57 l12 14 3 -34 3 -34 15 -12z m-394 21 l4 -35 -8 -5 -8 -5 0 40 c0 51 6 53 12 5z m-933 12 l23 -13 -33 -26 -34 -26 -28 26 -27 27 22 13 c29 16 47 16 77 -1z m2381 -54 l0 -25 -19 17 -19 17 5 20 5 19 14 -11 14 -11 0 -26z m-793 -9 l-6 -5 -10 7 -11 6 13 14 12 13 3 -15 c2 -8 1 -17 -1 -20z m962 22 c16 -8 51 -19 77 -25 l49 -11 33 -32 c17 -17 32 -35 32 -39 l0 -8 -43 0 -43 0 -12 -12 -12 -12 0 -51 0 -51 12 -12 12 -12 58 0 58 0 10 26 c6 14 10 37 10 51 l0 25 14 -11 14 -12 5 -27 5 -27 -9 -53 c-6 -29 -19 -72 -29 -95 l-19 -42 0 17 -1 17 -70 56 -71 56 -24 39 -24 38 -46 39 -47 38 7 50 c7 59 15 95 22 95 2 0 17 -7 32 -15z m-3184 -46 c17 -7 53 -15 80 -18 l50 -6 -52 -19 -53 -18 -27 7 c-16 3 -38 14 -51 23 l-23 18 7 28 6 27 17 -15 c9 -8 30 -20 46 -27z m408 1 l18 -30 -20 0 -20 0 -8 -15 -9 -15 -29 30 -29 30 27 0 28 0 5 15 c9 22 18 19 37 -15z m497 -7 c0 -5 -4 -13 -8 -20 l-8 -12 -12 19 -12 20 20 0 20 0 0 -7z m-145 -126 l16 -13 -20 -18 -21 -19 0 16 c0 9 -5 28 -12 42 l-11 25 -15 0 -14 0 23 19 24 19 6 -29 7 -30 17 -12z m1830 43 l6 -9 -21 -21 -20 -20 -54 0 -53 0 -27 21 -26 21 5 9 6 9 89 0 89 0 6 -10z m-1180 -10 l6 -10 -25 -25 -25 -25 -34 0 -34 0 -46 31 c-26 17 -47 33 -47 35 0 2 45 4 99 4 l100 0 6 -10z m325 -10 l-11 -21 -27 -10 -27 -11 -32 17 -32 18 -5 13 -5 14 75 0 75 0 -11 -20z m458 6 l6 -6 -20 -15 -19 -14 -43 -7 -43 -6 -45 5 -45 5 -19 17 -20 18 7 10 6 10 114 -6 c63 -3 117 -8 121 -11z m775 5 l29 -6 -23 -30 c-12 -16 -36 -45 -53 -62 l-30 -33 -29 28 c-16 15 -42 46 -58 70 l-30 42 83 -1 c46 -1 96 -4 111 -8z m-2390 -55 l-5 -35 6 -26 7 -26 22 -9 22 -9 -23 0 -23 -1 -27 14 c-15 8 -37 25 -50 38 l-22 25 20 18 20 18 0 14 0 13 29 0 30 0 -6 -34z m2577 -138 l19 -39 2 -52 c1 -29 -1 -59 -5 -67 -3 -8 -9 -31 -13 -52 l-8 -36 -48 42 -48 42 10 27 11 28 0 44 0 44 -14 13 -14 13 32 27 31 26 13 -11 c7 -6 22 -28 32 -49z m-457 -109 l28 -12 28 -41 c15 -23 33 -56 39 -75 l12 -34 0 -263 0 -264 -16 0 -16 0 -47 -34 -46 -33 -102 -6 -103 -6 -20 -11 -20 -11 0 -43 0 -44 33 -24 c17 -13 70 -46 117 -72 l85 -48 38 -37 c21 -20 43 -45 49 -56 l11 -20 -30 30 c-16 17 -58 48 -94 69 -95 58 -236 167 -303 233 l-59 58 -23 50 -24 50 0 28 0 28 15 30 16 29 27 -6 c15 -4 50 -15 77 -25 l50 -19 98 0 98 0 24 16 25 16 0 32 0 32 -13 18 -13 18 -150 13 -151 13 -31 16 -31 16 -15 22 -16 22 0 34 0 34 16 26 15 27 154 0 153 0 27 25 26 24 -3 55 -3 55 -45 11 c-58 15 -90 36 -112 73 l-17 29 107 -19 c59 -10 120 -23 135 -29z m-2975 14 l37 -17 100 4 c55 2 168 4 251 4 l151 0 37 -22 c20 -12 115 -82 211 -157 l175 -136 0 -24 0 -24 -10 -6 -10 -6 -45 7 -45 6 -36 29 -37 29 -29 0 -29 0 -20 -11 -21 -11 -14 19 c-13 17 -23 48 -38 114 l-6 26 -63 42 -63 41 -47 0 -47 0 -28 -39 -28 -38 -44 38 -45 39 -48 0 -49 0 -29 -21 -29 -20 -43 25 -44 26 -36 0 -35 0 -22 35 -22 36 6 14 5 15 26 0 26 0 37 -17z m3752 -287 c0 -1 -25 -1 -55 -1 l-54 0 31 32 31 32 24 -31 c12 -18 23 -32 23 -32z m-289 -206 c1 -101 -1 -143 -7 -149 -4 -4 -65 44 -138 111 l-49 44 44 30 44 30 3 53 3 53 -18 21 c-10 12 12 -6 49 -38 l67 -60 2 -95z m176 78 l16 -18 42 0 42 0 16 18 15 17 4 35 4 35 8 -28 8 -27 -13 -31 -12 -31 -41 -30 -40 -29 -7 18 c-4 10 -30 43 -58 73 l-50 55 22 23 22 24 3 -44 3 -43 16 -17z m-3550 -138 l44 0 36 25 36 24 41 -29 40 -30 44 0 44 0 35 30 c18 17 38 30 44 30 6 0 30 -13 54 -30 l44 -30 41 0 41 0 5 15 c4 8 10 15 15 15 l8 0 9 -32 8 -33 -45 -5 -45 -5 -10 -32 -9 -33 -116 0 c-64 0 -179 3 -256 7 l-140 7 -62 72 -63 73 0 20 0 20 57 -39 56 -40 44 0z m785 60 l57 -11 6 -47 c3 -26 10 -74 16 -107 l11 -60 26 -48 25 -47 51 -25 51 -25 115 -15 c63 -9 129 -18 146 -21 l31 -4 12 -70 c6 -38 11 -78 11 -89 l0 -21 -20 -20 -20 -20 -37 0 c-21 0 -72 7 -113 16 l-75 16 -36 19 c-20 11 -44 19 -52 19 l-15 0 -4 9 c-6 18 -73 61 -163 105 l-90 44 -67 48 -67 49 4 13 c3 8 5 27 5 43 l0 29 39 0 40 0 17 17 17 17 -6 86 c-3 47 -9 93 -13 103 l-7 18 24 -5 c13 -3 50 -10 81 -16z m198 -47 c0 -27 3 -66 7 -88 l6 -40 -8 7 c-8 7 -34 121 -35 151 l0 17 15 0 15 0 0 -47z m-1227 -71 l86 -109 52 -87 52 -87 -15 -15 -14 -14 -134 24 -133 25 -20 20 -20 20 1 110 2 110 21 55 c11 31 24 56 28 56 4 0 46 -49 94 -108z m2559 -5 l-3 -83 21 -56 21 -56 33 -44 34 -44 83 -70 c46 -39 109 -88 139 -110 l55 -39 -32 -80 -33 -80 0 68 0 68 -16 30 c-8 17 -32 48 -52 71 l-36 40 -136 97 c-74 53 -151 112 -171 132 l-36 36 -6 33 c-10 48 -8 86 4 114 l12 25 26 10 c14 6 40 12 56 14 17 2 32 5 35 6 3 0 4 -36 2 -82z m-922 -169 l0 -8 -33 0 -33 0 4 40 4 40 -13 1 -14 0 20 8 20 8 22 -41 c12 -22 22 -44 23 -48z m2295 66 c9 -14 22 -43 30 -64 l13 -38 -22 -49 -23 -49 -44 -36 -43 -36 -16 26 -17 27 51 5 51 5 3 64 3 64 -13 8 -13 9 -40 0 -39 0 44 45 c24 25 47 45 51 45 4 0 14 -12 24 -26z m-315 -246 l0 -78 15 0 14 0 -17 -32 c-9 -18 -18 -35 -19 -36 -3 -7 -87 55 -121 89 l-33 32 41 42 40 41 0 40 0 40 -16 24 -17 25 57 -55 56 -54 0 -78z m-3155 12 l53 -30 6 -24 c3 -13 9 -31 12 -40 l6 -15 -73 21 c-86 24 -159 54 -159 65 0 5 7 19 16 31 l15 22 36 0 36 0 52 -30z m560 -123 c1 -1 8 -14 17 -28 l17 -26 34 -17 35 -16 24 0 23 0 11 -44 10 -45 -5 -48 -6 -48 -25 2 c-14 2 -44 5 -67 9 l-43 6 0 18 0 18 -86 83 c-73 71 -183 196 -207 235 l-7 12 137 -54 c75 -30 137 -55 138 -57z m1539 34 l35 -22 49 -54 49 -53 13 -46 13 -46 -16 -22 c-9 -13 -27 -36 -41 -53 l-25 -30 -66 35 c-37 19 -69 38 -72 42 l-4 8 25 0 26 0 0 55 0 55 -43 45 -44 45 -37 0 -38 0 -28 -29 -29 -28 -3 31 -3 31 -35 6 -35 5 55 28 55 27 82 -4 82 -5 35 -21z m-1841 -149 l66 -67 35 -59 36 -60 0 -25 0 -25 -31 30 c-17 16 -55 65 -84 109 -29 44 -74 103 -99 132 l-47 52 28 -10 29 -10 67 -67z m1495 16 l15 -18 34 0 34 0 -11 -19 c-5 -11 -10 -32 -10 -48 l-1 -28 -23 45 -22 45 -36 3 -36 3 -16 -47 -16 -48 0 -48 0 -48 48 0 c26 0 62 4 80 9 l32 10 0 -9 c0 -10 160 -120 220 -150 l45 -24 88 -4 88 -5 -10 -10 c-6 -6 -11 -19 -11 -29 l0 -18 -34 0 -33 0 -47 -41 -46 -41 0 -38 0 -39 23 -4 c12 -2 2 -2 -22 0 l-44 5 -51 23 -51 23 42 1 42 1 11 41 11 40 -3 42 -3 42 -45 -1 c-25 0 -64 -6 -87 -13 l-43 -12 0 -36 0 -36 18 -21 17 -20 -25 20 c-68 51 -146 124 -181 168 l-39 48 -11 42 -11 41 0 50 0 50 20 45 c10 25 32 61 48 79 l29 35 4 -20 c1 -10 10 -27 19 -36z m1725 25 l14 -28 7 -117 6 -116 -33 -28 -32 -27 -3 34 -3 34 -27 28 -26 27 42 0 41 0 11 19 10 20 0 40 0 40 -17 16 -16 17 -48 -4 c-26 -1 -47 -2 -46 -1 17 16 94 73 99 73 4 0 14 -12 21 -27z m-335 -247 l-4 -141 -30 -55 -29 -55 -8 2 c-4 2 -40 42 -80 89 l-72 87 43 42 42 42 0 62 0 62 -25 49 -25 49 6 15 6 15 90 -60 90 -61 -4 -142z m194 148 l-4 -36 -16 16 -16 15 19 21 c10 11 19 20 20 20 0 0 -1 -16 -3 -36z m-664 -144 l2 -35 -25 30 c-14 17 -25 34 -25 38 l0 8 23 -3 22 -3 3 -35z m-182 -65 l-21 -64 -14 34 -14 35 -34 0 -35 0 7 18 c4 9 9 24 12 32 l4 15 58 -3 58 -4 -21 -63z m-1451 3 l7 -28 -11 0 -11 0 0 19 c0 11 -3 28 -6 38 l-7 18 11 -10 c6 -5 14 -22 17 -37z m243 8 c2 -3 -4 -18 -14 -35 l-18 -31 -24 23 c-13 12 -28 31 -34 41 l-10 19 48 -7 c26 -3 49 -8 52 -10z m-408 -86 l0 -20 26 0 27 0 -24 -19 c-24 -18 -83 -51 -93 -51 -7 0 -36 69 -36 86 l0 13 43 4 c23 2 45 4 50 5 l7 2 0 -20z m558 4 l22 -6 0 -29 0 -29 -10 0 c-6 0 -24 7 -41 15 l-29 16 10 19 c12 22 14 23 48 14z m166 -70 c9 -22 8 -24 -9 -24 l-15 0 0 20 0 20 9 0 c5 0 12 -7 15 -16z m1036 -14 l0 -21 -24 -24 c-13 -13 -42 -33 -65 -44 l-41 -21 0 37 c0 21 -3 48 -6 60 l-6 22 43 4 c24 2 56 4 72 5 l27 2 0 -20z m265 -60 l45 -59 -9 -5 c-5 -3 -37 -12 -72 -21 l-64 -15 -42 0 -43 0 0 6 c0 3 20 29 45 56 25 28 53 63 62 79 l17 28 8 -5 c4 -3 28 -31 53 -64z m-1738 40 l26 -20 -14 0 c-8 0 -31 3 -52 6 l-37 7 17 13 c24 18 31 17 60 -6z m2288 -40 c-8 -23 -21 -51 -30 -63 l-15 -21 0 51 0 52 18 10 c9 6 22 11 29 11 l12 0 -14 -40z m-1025 -50 l45 -18 -60 -12 c-33 -6 -70 -14 -82 -17 l-23 -5 0 26 0 27 -15 29 -15 30 52 -21 c29 -12 73 -29 98 -39z m-1473 -8 l-17 -19 0 -37 0 -38 23 -19 22 -18 43 -1 42 0 0 -34 0 -35 21 -14 20 -15 -13 -4 -13 -5 -10 9 c-5 4 -44 32 -85 61 l-74 52 -33 43 c-18 24 -33 47 -33 51 l0 7 58 16 c31 8 59 16 61 17 2 0 -3 -7 -12 -17z m885 -106 l78 -67 31 -60 32 -60 40 -45 39 -45 27 -13 c14 -8 52 -19 83 -26 l57 -13 -83 -57 c-104 -71 -246 -190 -280 -235 l-26 -34 0 -35 0 -36 58 -1 57 -1 -88 -23 c-128 -34 -312 -113 -389 -167 l-28 -19 0 -38 0 -39 14 -12 15 -12 88 -15 88 -15 400 5 400 5 80 11 c44 6 121 16 170 22 50 5 137 17 194 25 57 8 106 13 108 10 3 -3 -12 -13 -33 -22 l-39 -17 -70 -8 c-38 -4 -106 -12 -150 -19 -44 -6 -118 -15 -165 -21 l-85 -9 -595 -10 -595 -10 -128 -10 -128 -10 -19 -10 -20 -11 0 -38 0 -39 33 -29 c19 -16 68 -51 109 -76 l75 -47 90 -39 c108 -47 331 -120 467 -152 l99 -24 -34 -5 -34 -5 -3 -67 -3 -68 75 0 c41 0 81 3 90 6 l16 6 0 34 0 34 -40 26 c-22 15 -39 28 -38 29 2 2 32 -3 68 -10 l65 -12 -3 -12 c-1 -7 -5 -39 -9 -72 l-6 -59 60 0 c33 0 75 3 92 6 l31 7 0 36 0 37 -37 22 -38 22 25 -5 c44 -8 171 -23 318 -36 l144 -13 19 -27 19 -27 -6 -15 c-8 -23 -28 -27 -149 -38 l-110 -9 -162 0 -161 0 -114 20 c-62 11 -142 28 -178 37 l-65 18 -3 70 -3 69 -10 13 -11 12 -86 27 -87 27 -65 4 -65 5 -27 -11 -27 -10 -30 -41 c-16 -23 -32 -47 -34 -53 l-4 -12 -47 23 -48 23 9 42 c4 23 8 67 8 98 l0 57 -20 22 c-26 29 -94 63 -179 89 l-68 21 -68 6 -68 7 -37 -57 c-21 -31 -40 -56 -42 -56 -2 0 -22 9 -43 20 l-40 20 0 35 c0 19 5 54 12 78 l11 43 -6 25 -7 26 -71 63 -72 64 -56 8 c-31 4 -97 10 -147 14 l-92 7 -25 -44 c-14 -24 -29 -56 -32 -71 l-7 -28 -9 0 c-16 0 -61 31 -102 69 l-39 36 -18 35 -18 36 8 39 c5 22 15 67 22 100 l13 60 96 3 97 3 73 -56 74 -56 100 -49 100 -49 85 -23 85 -23 215 0 215 0 75 19 c140 36 233 82 353 173 l57 44 0 30 0 29 16 0 17 0 14 18 c7 9 25 39 39 66 l26 50 5 56 6 57 -39 42 -38 42 -11 61 -11 61 24 24 24 25 -5 44 -5 44 15 0 14 0 24 25 25 24 0 72 0 72 23 -19 c12 -11 57 -50 99 -88z m1512 46 l35 4 -7 -11 c-14 -24 -96 -115 -104 -115 l-8 0 0 75 0 75 25 -16 25 -16 34 4z m-2135 -96 l12 -14 -16 -6 -15 -5 0 19 c0 24 4 25 19 6z m1583 -30 l-4 -44 21 -21 21 -21 49 0 50 0 3 23 4 22 9 -49 8 -49 -19 -14 c-11 -8 -42 -20 -69 -29 l-51 -14 -62 -2 -62 -2 -26 25 -27 24 -18 40 c-10 22 -19 47 -18 55 l0 15 20 -27 21 -28 47 0 47 0 19 14 18 13 -6 57 -6 56 17 0 17 0 -3 -44z m-652 -20 c0 -13 3 -33 6 -43 l6 -18 -31 35 c-17 19 -31 38 -31 42 l0 8 25 0 25 0 0 -24z m1066 -30 c-21 -18 -52 -41 -67 -50 l-29 -17 -20 33 c-11 18 -20 38 -20 45 l0 12 63 4 c34 2 73 4 87 5 l25 1 -39 -33z m-726 -131 l12 -15 -8 0 c-5 0 -36 21 -68 45 l-59 45 -33 0 -33 0 6 16 6 15 10 -10 11 -11 48 0 49 0 6 17 6 16 17 -51 c9 -28 23 -58 30 -67z m434 -258 l-6 -17 -32 1 -31 1 28 10 27 10 0 16 0 16 10 -10 11 -11 -7 -16z m-1269 -869 l10 -17 35 -15 35 -15 -24 -1 -24 0 -32 20 -33 21 -11 30 -11 31 18 31 17 32 5 -50 5 -50 10 -17z m578 -74 l28 -24 -9 0 c-5 0 -21 9 -34 20 l-25 19 -13 31 -13 31 14 27 13 27 6 -54 6 -53 27 -24z m536 -258 l12 -14 -16 -6 -15 -5 0 19 c0 24 4 25 19 6z"></path><path id="plm2aCtjV" d="M234 3097 c-3 -8 -4 -47 -2 -88 l3 -74 68 -3 67 -3 0 34 0 33 -27 55 -28 54 -38 3 -37 3 -6 -14z"></path><path id="pqfHtm56K" d="M2510 2333 l0 -50 11 -32 11 -31 35 0 35 0 29 21 29 20 0 39 0 38 -27 18 -27 17 -48 5 -48 5 0 -50z"></path><path id="pX7Gum5AB" d="M2990 238 c0 -18 3 -43 6 -55 l6 -23 57 0 c31 0 66 3 79 6 l22 6 0 37 0 37 -33 12 -33 12 -52 0 -52 0 0 -32z"></path></g></g><g id="l2747Vwyf0iGBBtAOVK3mvX" fill="rgb(255,255,255)" style="transform: none;"><g><path id="p1308rLzOQ" d="M2349 4372 c-24 -16 -52 -38 -62 -49 l-18 -21 3 -68 3 -69 27 -3 27 -3 27 43 c14 24 33 51 41 60 l15 17 50 -59 50 -60 19 0 19 0 0 59 0 60 -58 60 -58 61 -20 0 -20 0 -45 -28z m29 -99 l-3 -18 -18 -3 -17 -3 0 20 0 21 21 0 20 0 -3 -17z m115 1 l6 -6 -6 -14 -5 -14 -13 0 -13 0 -5 14 -6 14 6 6 c4 3 12 6 18 6 6 0 14 -3 18 -6z"></path><path id="p1HvJPfqWv" d="M2715 4371 c-27 -16 -58 -37 -67 -47 l-17 -19 -10 -45 c-6 -25 -11 -60 -11 -79 l0 -33 23 6 c12 3 37 6 55 6 l34 0 27 28 c14 15 36 40 48 57 l21 30 59 -63 58 -62 33 0 32 0 0 74 0 73 -45 42 -45 42 -26 9 -25 10 -47 0 -47 0 -50 -29z m220 -81 l6 -10 -6 -21 -7 -20 -21 3 -22 3 -3 28 -3 27 25 0 25 0 6 -10z m-175 -7 c0 -5 -4 -14 -9 -22 l-9 -14 -11 7 c-6 4 -11 14 -11 22 l0 14 20 0 20 0 0 -7z"></path><path id="pCXKIVr4s" d="M1934 4365 l-49 -25 -36 -37 c-20 -21 -47 -57 -59 -80 l-24 -43 6 -6 c3 -3 34 -6 69 -7 l63 -2 35 52 36 52 10 1 c6 0 33 -25 61 -55 l51 -55 62 0 61 0 0 50 0 51 -46 49 -45 48 -34 16 -33 16 -39 0 -39 0 -50 -25z m-24 -115 l0 -21 -16 -6 -15 -6 -11 11 -11 11 6 15 6 16 21 0 20 0 0 -20z m245 -5 l0 -20 -19 -3 -18 -4 -9 9 -10 10 7 17 7 17 21 -3 21 -3 0 -20z"></path><path id="p51OIRFTs" d="M1198 4375 c-2 -3 -54 -9 -115 -14 l-110 -9 -22 -11 -21 -12 0 -37 0 -38 23 -30 c12 -17 83 -95 157 -173 l135 -143 27 -14 27 -14 59 0 59 0 40 33 c22 17 73 60 114 94 l74 62 16 28 16 28 6 55 7 55 -7 38 -6 39 -26 10 c-14 5 -69 21 -121 34 l-95 24 -116 0 c-64 0 -118 -2 -121 -5z m305 -40 l67 -17 0 -8 c0 -5 -33 -50 -74 -102 l-74 -93 -30 -17 -30 -18 -29 0 -28 0 -38 26 -39 26 -39 60 -39 60 -6 35 -6 34 6 6 c3 3 27 12 53 20 l48 13 95 -4 95 -4 68 -17z m-412 -66 l11 -22 -11 -23 -11 -24 -24 0 -25 0 -15 16 c-9 8 -16 22 -16 29 0 7 7 21 16 29 l15 16 24 0 24 0 12 -21z m559 -9 l11 -20 -11 -20 -11 -20 -14 0 c-7 0 -20 3 -29 6 l-16 6 0 27 c0 34 7 41 36 41 l23 0 11 -20z m-70 -128 l23 -18 -7 -21 -7 -21 -16 -6 -16 -6 -18 5 -18 6 -6 20 -7 20 18 20 c21 23 26 24 54 1z m-358 -39 c23 -21 23 -36 -1 -57 l-19 -18 -23 4 -22 3 -10 17 -11 16 12 26 12 26 21 0 22 0 19 -17z m216 -78 l11 -25 -5 -15 c-4 -9 -14 -19 -23 -24 l-16 -9 -21 8 -21 8 -7 18 -6 17 15 23 15 24 24 0 23 0 11 -25z"></path><path id="pPkVb6KQ4" d="M1268 4284 l-28 -15 0 -22 0 -23 33 -32 33 -32 28 0 28 0 29 21 29 21 15 29 16 29 -33 20 -33 20 -45 0 -45 -1 -27 -15z"></path><path id="p2ZnMygIZ" d="M3152 4358 l-43 -21 -16 -23 -15 -23 -1 -60 c-1 -33 1 -62 4 -65 l6 -6 39 13 39 14 24 42 23 43 47 -46 46 -45 42 -7 41 -6 7 57 7 57 -10 22 -10 23 -53 27 -53 26 -40 0 -41 -1 -43 -21z m26 -80 l-3 -23 -20 0 -20 0 -3 23 -3 22 26 0 26 0 -3 -22z m147 -3 l0 -20 -20 0 -20 0 -3 23 -4 24 24 -4 23 -3 0 -20z"></path><path id="pMs0xIlA" d="M3539 4365 l-26 -14 -17 -35 -17 -36 -6 -65 -6 -65 21 0 20 0 24 29 c12 16 31 43 41 61 l17 32 65 -60 65 -60 28 -5 c15 -3 30 -3 34 0 l8 4 0 53 0 54 -40 40 -39 41 -40 21 -40 20 -33 0 -33 -1 -26 -14z m9 -77 l-3 -23 -20 0 -20 0 -3 23 -3 22 26 0 26 0 -3 -22z m147 -18 l0 -25 -25 0 -25 0 -3 28 -3 28 28 -3 28 -3 0 -25z"></path><path id="pikG4FBsU" d="M493 4350 c-61 -21 -108 -53 -124 -82 -15 -27 -8 -30 44 -18 l46 10 25 -10 25 -9 70 -64 69 -64 35 -16 35 -17 46 0 45 0 56 21 c30 11 55 22 55 23 0 1 -9 21 -20 44 -11 23 -25 65 -32 94 l-11 53 -14 16 -14 17 -44 11 -44 11 -98 0 -98 -1 -52 -19z m318 -90 l23 -70 -6 -5 -5 -6 -45 20 c-25 11 -49 24 -53 30 l-7 12 27 44 c14 25 30 45 35 45 l9 0 22 -70z m-151 8 c-1 -13 -7 -36 -14 -53 l-12 -30 -55 52 -54 53 68 0 67 0 0 -22z"></path><path id="pHCrP42Th" d="M3865 4278 c-4 -14 -35 -187 -35 -201 0 -4 28 -36 63 -72 34 -36 80 -84 102 -107 22 -24 60 -59 85 -79 l44 -35 -77 -81 -77 -80 0 -47 0 -47 23 12 c12 7 52 42 89 80 l66 67 36 74 35 73 12 68 11 69 -6 40 -7 41 -70 78 -71 78 -51 11 -52 11 -52 29 c-60 34 -62 35 -68 18z m251 -216 c6 -4 13 -14 16 -22 l5 -15 -8 -22 -8 -23 -29 0 -28 0 -12 12 -12 12 0 21 0 21 12 12 12 12 21 0 c11 0 25 -4 31 -8z"></path><path id="p10h4eQIMf" d="M1955 4160 l-25 -50 -25 0 -24 0 -5 -8 -5 -9 32 -30 c18 -17 50 -43 71 -57 l39 -26 61 0 62 0 21 15 22 16 13 40 12 41 -15 9 -14 9 -42 0 -42 0 -47 50 c-26 28 -51 50 -55 50 -5 0 -20 -22 -34 -50z m84 -14 l13 -15 -7 -11 -6 -10 -35 0 -34 0 0 16 c0 8 5 24 10 35 l11 19 18 -9 c10 -6 23 -17 30 -25z"></path><path id="pBjA59Aev" d="M2782 4162 l-30 -49 -57 -6 -58 -6 -11 -11 -10 -10 42 -43 42 -42 109 0 108 0 27 15 28 14 15 29 c8 16 12 31 10 34 -3 2 -26 7 -51 11 l-46 7 -32 49 c-18 27 -38 51 -44 53 l-12 4 -30 -49z m76 -29 l14 -23 -41 0 -41 0 0 13 c0 7 6 19 12 25 l13 13 14 -3 14 -3 15 -22z"></path><path id="pVBOA1mzz" d="M3195 4173 l-20 -36 -30 -12 c-16 -7 -38 -15 -48 -18 l-18 -7 15 -29 c9 -16 28 -39 42 -50 l27 -21 79 0 79 0 19 10 19 10 12 41 13 41 -15 9 c-8 5 -24 9 -36 9 l-22 0 -37 45 -36 45 -12 0 -11 0 -20 -37z m62 -15 c13 -12 23 -25 23 -30 l0 -8 -45 0 -46 0 16 30 c19 36 22 36 52 8z"></path><path id="pueXDH9Sv" d="M3562 4160 l-31 -50 -21 0 -21 0 -6 -16 -6 -17 19 -35 c10 -20 43 -62 73 -94 l53 -58 11 0 c6 0 35 25 65 56 l53 55 19 42 c10 22 17 44 15 48 -3 3 -23 9 -46 12 l-42 5 -52 52 -51 51 -32 -51z m71 -41 l-11 -11 -28 4 -29 3 3 20 c2 11 9 26 15 33 l10 13 26 -25 25 -26 -11 -11z"></path><path id="ppaZvoD4P" d="M2380 4155 l-31 -45 -22 0 c-12 0 -28 -4 -36 -9 l-15 -9 24 -35 24 -35 27 -16 27 -16 35 0 c20 0 47 4 60 9 l24 10 22 34 c11 19 21 39 21 44 l0 10 -24 11 -24 10 -28 41 -29 41 -12 0 -12 0 -31 -45z m74 -36 l-5 -9 -24 0 -24 0 -6 11 -7 10 18 20 19 21 17 -22 18 -22 -6 -9z"></path><path id="pjoidAZb3" d="M1733 4114 l-13 -6 0 -12 c0 -15 42 -56 56 -56 6 0 23 13 38 29 l28 29 -10 6 c-5 3 -26 8 -48 10 l-39 5 -12 -5z"></path><path id="p10dszeifX" d="M972 4048 c-5 -7 -29 -51 -52 -97 l-42 -84 16 6 c30 12 137 88 142 102 l5 13 -23 36 c-25 39 -31 42 -46 24z"></path><path id="piN7FWsh1" d="M3412 4040 l-10 -25 7 -6 c3 -4 18 -9 34 -13 l27 -6 0 9 c0 6 -11 23 -24 38 l-25 28 -9 -25z"></path><path id="p18p9Lm7Qm" d="M3036 4035 c-9 -24 -8 -25 15 -25 l20 0 -3 17 c-2 9 -8 18 -14 20 l-12 4 -6 -16z"></path><path id="p11GNLSpvU" d="M278 4021 c-26 -10 -62 -28 -81 -40 l-35 -21 -16 -25 c-9 -13 -16 -27 -16 -31 l0 -6 27 5 28 5 48 -18 48 -18 249 -8 250 -7 0 9 c-1 8 -46 47 -135 115 l-35 27 -71 16 -71 16 -72 0 -71 -1 -47 -18z m214 -15 c98 -19 117 -27 172 -75 l47 -41 -16 -6 -17 -7 -96 8 c-54 5 -140 9 -192 9 l-95 1 -52 19 c-29 11 -53 23 -53 26 0 10 79 52 124 66 54 17 90 17 178 0z"></path><path id="p17mw8NGxz" d="M2226 4024 c-9 -23 -8 -24 19 -24 l25 0 0 8 c0 10 -21 32 -31 32 -4 0 -10 -7 -13 -16z"></path><path id="pM0PnqrXX" d="M2564 4029 l-7 -11 14 -9 c26 -17 33 -12 23 15 -7 19 -20 21 -30 5z"></path><path id="pkn6C26KA" d="M1850 4015 l-12 -15 27 0 27 0 -4 12 c-2 6 -9 13 -15 15 l-10 4 -13 -16z"></path><path id="p177eZwyo2" d="M3782 3935 l-63 -62 30 -13 30 -12 6 -19 6 -19 -7 -22 c-3 -13 -15 -35 -25 -49 l-19 -27 85 -76 c47 -42 89 -76 94 -76 l8 0 6 61 5 62 57 57 56 56 -61 47 -60 47 0 15 0 15 -36 40 c-20 22 -39 39 -43 39 -3 -1 -34 -29 -69 -64z m212 -117 l16 -22 -22 -24 -23 -23 -9 20 -8 20 6 25 6 26 10 0 c5 0 16 -10 24 -22z"></path><path id="p6uLpezvf" d="M1617 3945 c-9 -20 -17 -40 -17 -46 l0 -10 76 -35 c42 -20 77 -34 79 -32 5 5 -108 158 -116 158 -3 0 -13 -16 -22 -35z"></path><path id="p16N1AhxPC" d="M1100 3903 c-6 -15 -12 -33 -15 -39 l-3 -12 11 -11 11 -11 23 0 23 0 12 25 11 24 -13 16 c-7 9 -22 21 -32 26 l-18 10 -10 -28z"></path><path id="pO67NGT8z" d="M2500 3887 l0 -33 25 -51 26 -51 48 -45 48 -45 53 -27 53 -27 52 -5 53 -6 53 13 c54 13 175 62 216 88 l22 14 -19 51 c-11 28 -26 57 -34 65 l-15 15 -50 -22 -51 -22 -93 -8 -93 -9 -47 9 -46 8 -53 27 c-29 14 -72 42 -95 60 -23 19 -44 34 -47 34 -3 0 -6 -15 -6 -33z m98 -67 c27 -16 68 -37 92 -45 l43 -15 97 0 98 0 59 19 c32 10 66 22 75 26 l17 7 15 -37 c9 -21 16 -41 16 -46 l0 -9 -60 -30 -60 -30 -57 -15 -57 -15 -52 0 -51 0 -60 30 -61 30 -45 49 c-25 26 -52 62 -61 79 l-17 32 11 0 c5 0 32 -13 58 -30z"></path><path id="pSyByvwHI" d="M2171 3881 c-6 -10 -19 -51 -31 -92 l-20 -74 0 -50 0 -51 15 -57 c8 -32 24 -76 36 -99 l21 -41 54 -54 54 -54 52 -24 53 -24 65 -7 65 -6 92 16 92 16 97 31 96 31 -6 56 c-4 31 -9 78 -12 104 l-6 46 -86 7 c-48 4 -130 15 -181 25 l-95 19 -62 31 -63 31 -74 69 -75 70 -32 50 c-18 28 -34 50 -36 50 -2 0 -8 -8 -13 -19z m110 -143 l94 -93 61 -32 61 -33 84 -19 c46 -11 127 -25 179 -31 52 -6 98 -14 102 -18 l6 -7 4 -74 3 -75 -75 -24 c-41 -13 -111 -30 -155 -38 l-80 -14 -62 0 -62 0 -56 21 -55 20 -55 51 -55 50 -32 66 -33 67 1 110 0 110 12 28 c6 15 13 27 16 27 2 0 46 -42 97 -92z"></path><path id="p1D5YlUNfo" d="M1458 3832 l-28 -17 0 -10 c0 -12 65 -123 81 -139 l9 -10 0 20 c0 34 -23 174 -29 174 -3 0 -18 -8 -33 -18z"></path><path id="pVM50gT8r" d="M1874 3823 c-9 -15 -33 -52 -53 -82 l-36 -55 -59 -38 -59 -38 -79 -25 c-44 -14 -86 -25 -95 -25 l-15 0 6 -17 c4 -9 14 -40 23 -67 9 -28 21 -57 28 -65 l13 -13 68 -19 c38 -10 81 -19 97 -19 l29 0 45 32 45 33 49 65 49 65 16 49 17 49 -6 52 -5 52 -21 41 c-11 22 -25 43 -30 47 l-10 6 -17 -28z m45 -64 l11 -32 0 -51 0 -51 -20 -43 -19 -43 -58 -61 c-32 -33 -70 -69 -85 -79 l-27 -20 -77 20 -77 20 -13 13 -12 13 -7 46 -7 46 29 7 c15 4 62 22 103 39 l75 31 58 55 c32 30 67 70 78 88 11 18 24 33 29 33 l8 0 11 -31z"></path><path id="p1Bcnh6tgS" d="M3156 3841 l-5 -8 25 -51 25 -50 26 -18 c15 -9 47 -22 73 -29 l45 -11 3 -25 3 -25 -26 -24 -26 -25 -104 -3 -103 -4 -34 11 -35 12 -15 -6 c-8 -3 -22 -19 -31 -34 l-17 -29 0 -64 0 -64 16 -22 15 -22 31 -16 31 -16 151 -13 150 -13 13 -18 14 -19 -23 -17 -23 -18 -67 0 -68 0 -72 24 c-40 13 -88 26 -106 30 l-33 6 -19 -33 -20 -32 0 -60 0 -60 24 -50 23 -50 66 -64 c70 -68 199 -167 321 -244 l75 -47 28 -58 28 -57 0 -130 0 -130 -8 -40 -8 -40 20 25 c12 14 30 44 42 68 l21 42 -4 138 -3 137 -23 50 -23 50 -37 38 -37 38 -90 51 c-49 29 -105 63 -122 76 l-33 24 0 14 0 13 20 11 20 11 82 2 82 2 6 -35 c4 -19 14 -49 23 -66 l16 -31 40 -36 c22 -20 59 -46 81 -57 l41 -21 44 3 44 3 -33 53 -34 52 -31 94 -31 95 0 304 0 304 -12 34 c-6 19 -24 52 -39 75 l-28 41 -28 12 c-32 12 -244 51 -285 51 l-27 0 -5 -9z m414 -867 c10 -38 33 -100 49 -138 36 -79 35 -76 16 -76 -43 0 -142 77 -171 132 l-14 27 0 30 0 29 47 35 c27 20 49 34 51 33 1 -2 11 -34 22 -72z"></path><path id="p12pu7aekC" d="M347 3823 c-4 -3 -7 -25 -7 -47 l0 -41 26 -38 26 -38 30 6 29 7 60 -37 59 -36 44 30 45 31 18 0 18 0 65 -56 64 -57 11 18 c5 9 22 35 38 56 l27 39 17 0 17 0 63 -41 63 -42 6 -26 c3 -14 10 -42 15 -61 l9 -35 23 -29 23 -28 41 20 41 21 35 -28 35 -28 72 -12 71 -13 17 15 17 16 -3 51 -4 51 -174 135 c-96 74 -191 145 -211 157 l-37 21 -181 1 c-99 0 -211 -2 -250 -4 l-70 -3 -37 16 -37 16 -54 0 -54 0 -6 -7z"></path><path id="p1C1qiFmBU" d="M1255 3822 c-3 -3 -5 -24 -5 -47 l0 -42 18 -16 c9 -8 23 -17 30 -19 l13 -3 14 40 c8 22 15 47 15 56 l0 17 -40 10 -39 10 -6 -6z"></path><path id="pn2JAfSL5" d="M3670 3795 l0 -25 14 0 14 0 6 16 c3 9 6 20 6 25 l0 9 -20 0 -20 0 0 -25z"></path><path id="po5kzYxM4" d="M3707 3623 c-4 -3 -7 -20 -7 -37 l0 -31 51 -62 51 -62 -4 -22 -3 -22 -45 -32 -45 -32 -3 -25 -3 -25 73 -65 c40 -36 92 -79 116 -96 l43 -31 15 6 14 5 0 33 0 32 50 57 c28 31 50 59 50 61 0 2 -21 20 -47 40 l-48 36 -5 32 -5 32 -112 108 c-108 104 -122 114 -136 100z m298 -333 l18 -20 -23 -25 -23 -24 -8 5 -9 5 0 40 0 39 13 0 14 0 18 -20z"></path><path id="p3KjEfzYi" d="M437 3603 c-4 -3 -7 -19 -7 -35 l0 -28 8 0 c5 0 17 9 27 20 l17 19 -5 16 -6 15 -14 0 c-8 0 -17 -3 -20 -7z"></path><path id="pUyLrbr37" d="M662 3598 l-12 -12 0 -20 c0 -12 5 -28 10 -36 l9 -15 28 27 27 27 -19 21 c-21 23 -27 24 -43 8z"></path><path id="p1B9NW6ZYd" d="M4083 3528 l-83 -83 0 -20 0 -20 28 -30 c16 -16 43 -46 60 -67 l32 -36 -56 -66 c-31 -37 -55 -68 -53 -71 3 -2 32 17 66 43 34 26 90 65 125 87 l63 40 18 45 19 46 -11 42 -12 42 -43 62 -42 63 -15 3 -14 2 -82 -82z m111 -74 c20 -20 20 -33 -1 -56 -20 -22 -31 -23 -55 -1 l-18 16 0 18 0 18 18 10 c24 15 38 13 56 -5z"></path><path id="p8HDFUgXi" d="M922 3587 c-6 -6 -13 -24 -17 -39 l-7 -28 16 -6 17 -7 40 18 39 18 0 12 0 11 -35 17 c-43 20 -40 20 -53 4z"></path><path id="pReTlTrqe" d="M3700 3430 l0 -40 8 0 c4 0 18 7 31 16 l22 16 -22 24 c-12 13 -26 24 -31 24 l-8 0 0 -40z"></path><path id="p1EXgst0O0" d="M756 3401 l-18 -38 4 -24 3 -24 36 -3 36 -3 12 15 12 14 -26 51 c-14 28 -29 51 -34 51 -4 0 -16 -17 -25 -39z"></path><path id="pX2jKqkjt" d="M536 3408 l-16 -22 0 -20 0 -19 18 -13 c21 -17 44 -18 59 -3 l12 12 -22 43 c-11 24 -24 44 -28 44 -5 0 -15 -10 -23 -22z"></path><path id="pABwaRReu" d="M376 3348 c-3 -13 -6 -42 -6 -65 l0 -43 72 -84 72 -84 17 9 17 8 213 -5 c118 -2 237 -6 266 -8 l52 -4 -1 27 c-1 16 2 33 6 40 l7 11 45 0 44 0 0 28 c0 15 -5 43 -10 63 l-10 35 -25 24 -24 23 -22 -37 -21 -36 -10 0 c-5 0 -36 18 -68 40 -32 22 -64 40 -71 40 -7 0 -34 -18 -60 -40 l-48 -40 -14 0 -15 0 -51 40 c-28 22 -53 40 -56 40 -3 0 -27 -16 -54 -35 l-48 -35 -16 0 -15 0 -77 55 c-42 30 -78 55 -79 55 -2 0 -6 -10 -10 -22z"></path><path id="pOtBYe39A" d="M178 3293 l-31 -66 -9 -101 -8 -101 6 -57 6 -57 18 -16 18 -16 129 -24 c70 -14 144 -25 164 -25 l36 0 16 18 17 19 0 19 0 20 -55 92 -54 93 -97 121 c-53 67 -98 128 -101 135 -3 7 -9 13 -15 13 l-9 0 -31 -67z m138 -277 l24 -51 -26 -3 c-14 -2 -32 -1 -40 2 l-14 5 0 49 0 49 6 6 7 6 9 -5 c6 -4 21 -30 34 -58z"></path><path id="ptrGPZsvM" d="M1194 3343 c13 -40 36 -159 36 -185 l0 -27 -16 -15 -15 -16 -40 0 -39 0 0 -34 0 -35 -11 -6 -10 -7 -85 13 -84 12 -7 -7 -7 -7 14 -9 c20 -13 86 -37 136 -50 l41 -10 69 -51 69 -51 90 -44 c50 -25 107 -56 128 -71 l38 -27 -6 -26 c-4 -14 -10 -29 -15 -33 l-8 -9 -37 18 -38 18 -16 27 -16 28 -165 66 c-91 36 -171 65 -177 65 l-13 0 0 -22 c0 -13 6 -35 14 -49 23 -45 131 -171 220 -257 l86 -84 -21 -5 -21 -6 5 -44 5 -43 26 -40 26 -40 0 -72 0 -73 -10 -15 -9 -14 -6 6 c-4 3 -33 50 -66 103 l-59 98 0 61 0 62 -36 60 -35 59 -62 63 -62 64 -58 25 -57 26 -18 49 -17 49 -68 40 c-71 40 -91 46 -102 29 -3 -5 -11 -10 -16 -10 l-9 0 -10 26 c-6 14 -26 46 -46 70 l-36 44 -14 0 c-21 0 -18 -8 26 -60 l40 -48 0 -16 0 -16 -26 -41 -25 -40 3 -17 3 -17 70 -27 c39 -15 97 -35 130 -44 l60 -17 66 -66 66 -66 46 -71 45 -72 76 -83 77 -84 55 -93 56 -93 19 17 19 17 10 36 10 36 0 53 0 53 -30 59 c-16 33 -30 66 -30 75 l0 15 35 0 36 0 75 -40 76 -40 35 0 35 0 -7 38 c-3 20 -24 81 -46 136 l-39 98 0 38 0 39 8 5 8 5 29 -17 28 -18 42 -74 41 -75 54 5 c30 3 80 4 110 4 l55 -2 83 -26 c46 -14 87 -26 93 -26 l9 0 0 98 0 97 -13 56 -14 55 -30 45 c-17 24 -41 54 -54 65 l-24 22 -65 7 c-36 4 -110 13 -165 21 l-100 14 -51 25 -51 25 -25 47 -26 48 -11 60 c-6 33 -13 81 -16 107 l-6 47 -57 10 c-31 6 -70 16 -87 22 -16 6 -45 14 -64 16 l-33 5 6 -19z m771 -494 l37 -42 20 -44 20 -45 10 -105 c6 -57 8 -106 6 -108 -2 -2 -40 8 -83 22 l-80 26 -75 1 -75 0 -27 -7 -28 -7 -25 50 c-14 27 -25 54 -25 59 l0 9 53 -13 c28 -7 75 -16 103 -20 l51 -6 36 15 36 15 7 26 7 27 -7 72 c-3 39 -9 81 -12 94 l-6 22 10 0 c5 0 26 -19 47 -41z m-400 -423 l14 -47 -13 -5 -13 -5 -29 11 -29 11 18 10 17 10 0 41 0 42 11 -11 c5 -5 16 -31 24 -57z"></path><path id="pvhsJ2V90" d="M1476 3293 c3 -21 10 -70 16 -110 l11 -71 21 -38 21 -38 31 -18 32 -18 133 -19 c74 -11 165 -22 202 -25 l69 -7 -8 23 c-3 13 -33 75 -64 138 l-58 115 -19 17 c-10 10 -39 26 -64 37 l-45 20 -124 16 c-69 8 -132 15 -142 15 l-17 0 5 -37z m158 -38 l49 -25 30 0 29 0 33 -16 32 -15 32 -45 32 -44 -13 0 c-7 0 -31 12 -53 25 l-40 25 -22 0 -23 0 0 -13 0 -14 18 -16 c9 -8 42 -31 72 -51 l55 -36 -30 0 c-31 0 -135 22 -193 41 l-32 11 -14 27 -14 27 -7 72 -8 72 9 0 c5 0 31 -11 58 -25z"></path><path id="pYs773SK6" d="M2820 3275 c-36 -7 -72 -16 -81 -19 l-16 -7 -12 -25 -11 -25 0 -58 c0 -32 3 -73 7 -91 l6 -33 36 -36 c20 -20 97 -79 171 -132 l136 -97 36 -40 c20 -23 44 -55 54 -73 l16 -33 -4 -80 -5 -81 -22 -52 -23 -53 -45 -41 -45 -42 -62 5 -62 5 -44 23 c-55 28 -185 115 -211 141 l-19 19 0 38 0 39 39 61 40 61 21 11 22 12 44 -46 44 -46 0 -26 0 -26 -39 7 -38 6 -7 -17 -7 -17 27 -28 27 -28 84 -43 85 -43 44 50 c24 28 49 63 55 78 l12 28 -19 61 -18 61 -49 53 c-26 29 -63 62 -81 73 l-32 20 -91 11 -90 10 -47 -14 c-25 -8 -65 -25 -89 -39 l-43 -25 -47 -51 -48 -51 -18 -43 -19 -43 -7 -50 -6 -51 11 -64 12 -63 15 -30 15 -30 76 -74 c86 -84 176 -151 248 -184 l49 -23 160 2 160 1 75 17 75 16 60 28 c33 15 70 37 83 47 l23 19 14 60 c7 33 12 62 9 64 -2 2 -41 -1 -86 -7 l-82 -12 -8 8 -7 7 29 85 c17 46 34 88 39 93 l9 9 42 -53 c22 -29 47 -61 55 -72 l15 -21 7 8 8 8 -1 112 0 112 -25 50 -24 49 -127 85 c-142 96 -272 202 -319 261 l-32 40 -23 57 -24 57 0 48 0 48 15 36 c8 19 15 39 15 44 l0 9 -22 -1 c-13 -1 -52 -7 -88 -14z m-219 -607 c-1 -5 -1 -17 -1 -28 l0 -20 -13 0 -14 0 -17 19 -17 19 18 11 c19 11 44 11 44 -1z m764 -113 l58 -76 -9 -8 c-12 -11 -157 -51 -183 -51 l-21 0 0 9 c0 14 50 151 67 184 l14 28 8 -5 c4 -3 34 -39 66 -81z m-816 -72 c7 -19 11 -36 9 -38 -2 -2 -23 -7 -46 -11 l-42 -7 0 20 c0 11 7 41 16 68 l17 48 17 -23 c9 -12 22 -38 29 -57z m59 -161 c12 -8 22 -18 22 -22 0 -8 -53 -50 -63 -50 -7 0 -27 60 -27 82 l0 19 23 -7 c12 -4 32 -14 45 -22z m612 -121 c16 -54 30 -103 30 -109 l0 -11 -97 40 c-53 21 -98 41 -101 44 -2 2 21 34 53 70 l57 65 14 0 13 0 31 -99z m-430 -24 c0 -7 -5 -29 -11 -49 l-10 -38 -15 0 -14 0 -38 34 -37 34 7 7 c9 10 102 33 111 28 4 -2 7 -10 7 -16z m233 -93 c16 -31 26 -58 24 -60 -2 -3 -38 1 -80 7 l-77 11 0 8 c0 9 89 90 99 90 4 0 19 -25 34 -56z"></path><path id="pv90oY9eh" d="M3266 2524 l-7 -18 15 -14 14 -15 17 7 16 6 -3 22 -3 23 -21 3 -21 3 -7 -17z"></path><path id="pSRWsMdqb" d="M3143 2184 l-6 -15 11 -11 10 -10 11 6 11 7 0 20 0 19 -15 0 -16 0 -6 -16z"></path><path id="p1GrhR4BZw" d="M3710 3117 l0 -33 55 -79 c30 -44 55 -84 55 -90 0 -6 -22 -33 -50 -60 -27 -27 -50 -54 -50 -60 0 -32 156 -157 213 -171 l27 -6 0 24 0 25 45 57 c25 32 45 62 45 66 0 4 -20 30 -45 58 l-45 50 0 14 0 14 -113 112 -114 112 -11 0 -12 0 0 -33z m291 -293 l24 -26 -19 -14 c-11 -8 -26 -14 -33 -14 l-13 0 0 40 0 40 8 0 c5 0 19 -12 33 -26z"></path><path id="pxRt4wwww" d="M4112 3048 l-97 -93 1 -13 c1 -7 26 -49 54 -93 l53 -80 -33 -34 -34 -35 6 -6 6 -6 59 37 c32 21 78 53 102 73 l43 35 24 51 24 51 0 26 c0 38 -26 107 -56 146 l-25 33 -15 0 -15 0 -97 -92z m76 -87 l13 -8 -3 -34 -3 -34 -28 -3 -28 -3 -15 12 -14 11 0 19 0 18 16 15 15 16 17 0 c9 0 23 -4 30 -9z"></path><path id="prptKUgOR" d="M3707 2938 c-3 -23 -4 -45 -1 -47 2 -2 15 1 30 7 l25 12 -3 21 -3 22 -21 14 -21 14 -6 -43z"></path><path id="puTSxoRex" d="M817 2962 l-28 -3 4 -12 c2 -7 14 -18 28 -24 l24 -13 27 0 27 0 11 21 c7 11 10 22 8 23 -7 6 -75 12 -101 8z"></path><path id="peAvFdi5C" d="M3706 2664 l-25 -37 35 -68 34 -69 0 -32 0 -32 -56 -53 -55 -53 13 -18 c7 -10 51 -64 97 -120 l84 -102 12 0 c17 0 49 38 76 90 l23 45 4 171 4 172 -88 59 c-49 33 -99 65 -111 72 l-22 11 -25 -36z"></path><path id="p1oqa4p9i" d="M4151 2654 l-60 -45 -35 -41 -34 -42 77 -83 c42 -46 78 -88 80 -94 l3 -10 -37 -56 c-20 -30 -34 -57 -31 -60 7 -7 117 54 160 89 l38 31 -7 146 -7 146 -14 26 -13 27 -16 6 c-30 11 -43 6 -104 -40z m63 -110 c19 -18 20 -28 6 -55 l-11 -19 -19 0 -19 0 -15 16 c-9 8 -16 22 -16 29 0 18 27 45 45 45 7 0 21 -7 29 -16z"></path><path id="pcYJYvfJ6" d="M3651 2514 c-6 -21 -11 -51 -11 -66 l0 -28 8 0 c4 0 18 7 30 16 l22 15 0 27 0 27 -19 24 -19 25 -11 -40z"></path><path id="pWXBdLpLW" d="M1650 2397 l0 -66 -26 -20 -27 -21 -45 0 -45 0 6 -39 c3 -22 13 -60 22 -85 l18 -46 24 0 24 0 42 21 c23 12 67 41 97 64 30 23 70 50 88 59 l34 18 -7 36 c-4 20 -12 48 -18 61 l-12 25 -55 22 c-30 12 -70 25 -87 29 l-33 7 0 -65z m106 -50 l13 -36 -30 -26 -31 -25 -14 0 -14 0 0 42 0 42 22 23 22 23 10 -3 9 -3 13 -37z"></path><path id="pHtYPc3Cg" d="M4010 2431 l0 -19 35 -22 35 -22 0 -23 0 -23 -35 -26 -35 -27 0 -32 1 -32 44 50 c24 28 50 60 56 73 l13 23 -49 49 c-27 28 -53 50 -57 50 l-8 0 0 -19z"></path><path id="p18t41llEU" d="M1910 2380 c0 -6 7 -27 16 -48 l15 -37 31 -32 32 -33 23 0 22 0 26 45 26 44 -3 22 -3 23 -26 6 c-14 4 -55 10 -92 14 l-67 8 0 -12z"></path><path id="peM6NjvWv" d="M2130 2269 c-16 -23 -30 -48 -30 -56 l0 -14 53 -24 c28 -13 64 -27 80 -30 l27 -7 0 28 c0 16 3 46 6 66 l6 37 -34 14 c-19 8 -44 18 -56 21 l-21 7 -31 -42z"></path><path id="p3UwODolO" d="M3337 2303 c-4 -3 -7 -17 -7 -30 l0 -23 24 0 24 0 6 16 6 17 -11 13 c-12 15 -31 18 -42 7z"></path><path id="pl3wGccNO" d="M2315 2194 c-4 -31 -5 -58 -2 -60 2 -3 27 -7 56 -11 l51 -6 0 25 c0 14 -5 39 -10 55 l-11 30 -25 12 c-14 6 -31 11 -38 11 l-14 0 -7 -56z"></path><path id="p8Sqb45jf" d="M3567 2183 l-47 -71 -37 -34 c-21 -18 -49 -41 -63 -51 l-24 -17 11 -11 11 -11 89 -5 89 -6 84 22 c46 11 88 25 93 30 l8 8 -60 79 c-32 43 -70 92 -83 108 l-24 29 -47 -70z"></path><path id="puoPo5BDM" d="M532 2162 l-62 -83 -39 -82 -40 -82 -17 -65 -17 -65 0 -95 1 -95 25 -97 26 -97 41 -88 42 -88 8 25 c4 14 15 65 24 114 l17 88 15 31 16 30 54 -7 54 -6 52 -20 c29 -11 53 -18 55 -17 1 2 -20 61 -48 132 -47 120 -96 272 -121 375 l-11 45 -6 115 -6 115 -63 -83z m42 -85 l7 -74 23 -89 c14 -49 47 -154 75 -234 28 -80 51 -150 51 -156 l0 -12 -62 14 c-35 7 -73 13 -86 14 l-22 0 -20 -32 -20 -33 -17 -77 c-10 -43 -20 -78 -23 -78 -8 0 -57 129 -76 198 l-16 57 -5 85 -6 86 21 82 21 81 36 73 c37 75 95 168 106 168 l6 0 7 -73z"></path><path id="pWMAhJ4AD" d="M1845 2184 c-22 -19 -60 -46 -85 -60 l-45 -25 -60 -16 c-33 -9 -64 -20 -69 -24 l-9 -8 12 -43 13 -42 57 -56 58 -55 51 -30 c28 -16 52 -33 52 -36 0 -4 -28 -25 -62 -47 l-63 -41 -45 -47 -45 -46 35 6 c19 3 69 10 110 16 l75 9 123 1 122 0 0 -9 c0 -5 -30 -57 -66 -117 -73 -120 -134 -235 -134 -253 l0 -11 13 0 14 0 69 50 c38 27 103 74 144 104 41 31 78 55 83 56 14 0 6 -25 -43 -136 l-50 -113 0 -21 0 -20 38 19 c21 10 66 40 100 66 35 26 65 46 67 44 2 -2 6 -16 10 -30 l7 -27 -59 -44 c-120 -93 -213 -138 -353 -174 l-75 -19 -185 0 -185 0 -82 22 -81 23 -78 35 -77 35 -81 54 -81 54 -34 42 -34 42 -51 24 -51 23 -87 12 -87 13 -20 -18 -20 -18 -10 -49 c-6 -28 -11 -74 -11 -103 l0 -53 51 -104 50 -104 37 -38 37 -38 61 -35 c33 -19 63 -34 66 -34 3 0 10 19 17 42 7 24 24 62 37 86 l25 42 22 0 c22 0 163 -18 202 -26 l20 -4 73 -68 73 -69 -10 -25 -10 -25 -2 -69 -3 -69 50 -26 c27 -15 58 -30 70 -33 l20 -6 42 65 42 66 37 -6 c63 -11 175 -46 223 -70 49 -25 74 -49 84 -80 l6 -21 -16 -54 c-8 -30 -18 -65 -21 -76 l-5 -22 77 -38 78 -38 14 19 c8 11 27 39 44 63 l30 43 27 10 27 11 40 -7 c22 -3 77 -17 122 -31 l81 -25 11 -12 10 -13 3 -69 3 -70 65 -18 c36 -9 116 -26 178 -37 l114 -20 191 0 192 0 110 9 c61 6 117 12 126 16 l15 6 17 28 16 28 -28 44 -28 45 -144 13 c-471 42 -896 140 -1192 275 -88 40 -223 124 -257 161 l-25 27 18 13 18 13 52 6 c29 4 158 11 287 16 l235 10 305 0 305 1 189 9 c179 9 262 17 399 41 l59 10 5 -5 5 -5 -58 -55 -59 -55 -34 -1 -34 0 17 -19 18 -20 -25 -63 -26 -63 -18 -10 c-10 -5 -20 -11 -22 -13 -3 -1 5 -11 17 -22 l22 -21 0 -50 0 -49 -25 -12 c-30 -14 -32 -24 -5 -33 l20 -6 10 6 11 7 10 -31 11 -31 14 0 c17 0 17 4 -2 65 l-15 50 -2 70 -1 70 32 69 32 69 69 67 68 67 66 33 65 32 13 30 12 29 -9 9 -9 9 -105 -14 c-58 -8 -163 -21 -235 -30 -71 -9 -164 -21 -205 -26 l-75 -11 -370 -5 -370 -5 -89 15 -89 16 -16 16 -16 16 25 21 c33 27 228 121 305 146 74 25 369 93 570 133 83 16 232 48 332 71 l183 42 6 -6 6 -6 -13 -24 c-6 -12 -17 -27 -23 -31 l-11 -9 13 -5 c7 -3 28 -28 46 -56 l33 -52 72 -72 72 -73 15 0 15 0 -10 18 c-5 9 -42 49 -81 87 l-72 70 -19 37 c-10 21 -19 46 -19 57 l0 20 25 47 c29 54 30 63 12 89 l-14 18 -110 13 -111 12 -89 22 c-48 12 -126 37 -173 56 l-85 33 -90 15 c-49 9 -108 21 -130 27 l-40 11 -50 52 -50 51 -35 65 -35 65 -120 103 c-65 56 -123 102 -127 102 l-8 0 0 -40 0 -40 -8 0 c-4 0 -12 4 -18 9 l-9 9 -70 11 -70 12 -68 26 -68 25 -40 -6 -39 -6 -33 16 c-17 9 -53 32 -78 50 l-47 34 -13 0 -14 -1 -40 -35z m205 -89 l125 -1 65 -23 64 -23 59 -6 58 -7 22 -38 22 -38 -16 -27 -15 -27 -47 -15 -48 -15 25 -34 25 -34 -10 -19 -11 -20 -34 -14 c-40 -17 -41 -20 -10 -45 l24 -19 7 -55 7 -56 39 -45 40 -46 -7 -32 c-7 -35 -45 -111 -70 -141 l-16 -20 -5 11 c-2 6 -9 19 -16 28 l-13 17 -76 -60 c-42 -34 -81 -61 -88 -61 l-12 0 5 13 c3 6 23 53 46 102 l40 91 7 43 7 43 -24 -12 c-38 -21 -159 -103 -223 -154 -33 -25 -63 -46 -68 -46 l-8 0 19 39 c11 21 56 98 101 171 l81 132 -6 7 -7 6 -204 -1 c-112 -1 -204 0 -204 2 0 11 148 99 251 149 63 31 115 59 117 63 l2 8 -77 61 c-43 34 -100 85 -128 114 l-50 51 55 -8 55 -8 125 -1z m-234 -76 l23 -21 -16 -24 -15 -24 -12 0 c-13 1 -56 35 -56 46 0 12 32 44 43 44 6 0 21 -10 33 -21z m106 -76 l18 -16 0 -22 0 -21 -13 -17 -12 -17 -23 15 -22 16 0 20 c0 22 17 59 27 59 4 0 15 -7 25 -17z m1243 -349 l13 -5 5 -18 4 -17 36 4 35 4 7 -21 6 -21 19 10 19 10 25 -10 26 -10 0 -9 0 -10 34 6 33 5 16 -23 16 -22 16 13 15 12 77 -11 c42 -6 78 -13 80 -15 13 -13 -427 -135 -672 -186 l-90 -19 -122 -7 -123 -7 0 7 c0 34 164 179 325 289 l100 68 44 -6 c24 -4 49 -9 56 -11z m-2411 -254 l60 -10 53 -26 53 -25 0 -9 0 -9 -112 -3 -113 -3 -12 -55 c-7 -30 -15 -72 -18 -92 l-6 -38 -9 0 -9 0 -20 55 -21 56 11 72 12 72 10 13 9 12 27 0 c14 0 53 -4 85 -10z m1903 -1051 l45 -31 -13 -9 -14 -9 -47 0 -48 0 0 33 c0 57 13 60 77 16z m263 -59 c0 -9 -51 -20 -91 -20 l-29 0 6 28 c3 15 8 33 10 40 l4 13 50 -27 c27 -15 50 -30 50 -34z m177 -2 c18 -7 33 -15 33 -19 0 -9 -38 -19 -72 -19 l-28 0 0 9 c0 5 -3 16 -6 25 l-6 16 23 0 c12 0 38 -5 56 -12z"></path><path id="pRPTbX43Q" d="M2060 1997 l0 -14 20 -18 c23 -21 26 -20 35 18 l7 27 -31 0 -31 0 0 -13z"></path><path id="pLpBJkaF4" d="M2220 1951 l0 -30 32 11 31 11 -22 19 c-13 10 -27 18 -32 18 l-9 0 0 -29z"></path><path id="pN6oR9ipk" d="M2120 1822 l0 -29 30 5 30 4 0 8 c0 11 -35 40 -48 40 l-12 0 0 -28z"></path><path id="pkQr7ZKfn" d="M2250 1841 c0 -5 3 -17 6 -25 l6 -17 14 12 c8 6 14 18 14 25 l0 14 -20 0 -20 0 0 -9z"></path><path id="p9tsRk4em" d="M2242 1628 c-5 -18 -8 -34 -6 -36 4 -6 64 28 64 36 0 12 -23 32 -37 32 l-12 0 -9 -32z"></path><path id="pyLOqrWi2" d="M2327 1513 c-4 -3 -7 -17 -7 -30 l0 -23 8 0 c4 0 16 7 26 15 l19 14 -13 16 c-14 16 -23 19 -33 8z"></path><path id="pNPusPiQY" d="M2990 1482 l-35 -17 -20 -38 -20 -38 33 -30 32 -29 21 0 c20 0 79 26 79 36 0 2 -9 0 -19 -6 -11 -5 -29 -10 -40 -10 l-20 0 -15 16 -16 15 0 29 0 29 37 30 38 31 -10 0 c-6 0 -26 -8 -45 -18z"></path><path id="pxjwTxqUV" d="M3056 1453 l-7 -16 11 -11 10 -10 16 16 16 16 -6 11 c-4 6 -13 11 -21 11 l-13 0 -6 -17z"></path><path id="pVs6RagqI" d="M4180 2173 c-52 -24 -112 -48 -132 -55 l-38 -11 0 -112 0 -112 -52 -7 c-29 -3 -71 -6 -93 -6 l-40 0 -13 -9 -13 -8 20 -53 c11 -29 28 -61 37 -71 l17 -19 17 0 18 0 60 40 59 40 67 66 66 65 40 59 40 58 20 56 21 55 -3 34 -3 33 -95 -43z m-32 -100 l3 -32 -19 -10 -20 -11 -23 18 -22 19 7 27 7 27 32 -3 32 -3 3 -32z"></path><path id="poQqqCgwx" d="M3932 2048 c-16 -16 -15 -29 3 -64 l14 -29 -8 -8 -9 -9 -36 12 -35 11 -22 -12 -22 -11 16 -10 17 -9 53 3 52 3 3 37 3 36 -8 31 -8 32 -13 -13z"></path><path id="pTTAxSzoi" d="M3130 1929 l-85 -19 -117 -6 -118 -7 0 -9 c0 -5 16 -33 35 -63 l34 -54 23 -14 23 -15 90 -6 90 -6 25 -19 c14 -10 45 -32 70 -50 l45 -31 53 -7 c28 -3 52 -4 52 -1 0 3 -20 35 -44 72 l-45 66 -6 42 -6 43 15 44 16 43 -6 9 -5 9 -27 -1 c-15 -1 -65 -10 -112 -20z m48 -31 l12 -12 0 -24 c0 -13 -5 -32 -10 -43 l-11 -19 -16 0 -16 0 -19 17 -18 16 0 16 c0 9 7 27 16 39 l15 22 18 0 17 0 12 -12z m-144 -44 l16 -15 0 -20 0 -19 -40 0 -40 0 -10 26 -10 26 6 9 5 9 29 0 29 0 15 -16z"></path><path id="pnR1vInKF" d="M3357 1933 l-7 -6 0 -81 0 -81 19 -40 18 -40 28 -25 27 -25 88 2 89 1 53 16 c29 8 64 23 76 32 l24 16 -7 47 c-3 25 -13 70 -21 99 l-15 53 -19 19 -20 20 -163 0 -164 0 -6 -7z m136 -37 c9 -13 19 -36 23 -50 l6 -25 -27 -13 -27 -12 -15 10 c-8 5 -25 25 -36 45 l-21 35 7 17 6 17 35 0 34 0 15 -24z m168 4 l19 -11 0 -39 0 -40 -16 0 c-22 0 -51 17 -58 35 l-5 15 9 25 10 25 10 0 c6 0 20 -5 31 -10z"></path><path id="p9Yt8KkWi" d="M4000 1633 l-55 -43 -32 -12 -32 -12 5 -22 6 -22 -16 -30 c-9 -17 -16 -38 -16 -47 l0 -15 9 0 c5 0 30 15 57 33 l48 32 27 39 c26 38 65 134 58 140 -2 2 -29 -16 -59 -41z m-10 -61 c0 -4 -14 -24 -31 -45 l-31 -37 -7 5 -8 5 5 25 4 26 27 14 c30 16 41 18 41 7z"></path><path id="pLWxxSAOQ" d="M3777 1493 c-2 -5 -1 -21 2 -38 l6 -30 23 32 c28 39 28 43 -2 43 l-25 0 -4 -7z"></path><path id="pEZoX8cWd" d="M3345 1240 l-20 -9 -53 0 -53 -1 -34 -14 -34 -14 -15 -31 -16 -30 0 -39 0 -40 35 -31 36 -31 22 0 c12 0 53 9 92 20 l70 20 20 -6 20 -5 -25 21 -24 21 -36 -7 c-19 -5 -54 -8 -76 -9 l-41 0 -17 14 -16 13 0 32 0 32 20 22 21 22 27 6 c15 3 43 10 63 15 l37 9 12 15 c14 17 13 17 -15 5z"></path><path id="phkoEfV14" d="M3661 1206 l-12 -14 8 -5 9 -6 14 9 15 9 -11 11 -11 11 -12 -15z"></path><path id="prPvZrb7h" d="M4195 1163 c-16 -13 -57 -38 -90 -54 l-60 -29 -20 0 c-11 0 -27 -5 -35 -10 l-15 -10 28 -25 c33 -30 33 -32 0 -67 l-26 -27 15 -6 16 -6 42 21 43 22 46 46 47 47 23 47 23 48 -4 14 -3 14 -30 -25z m-34 -80 c-5 -10 -26 -34 -45 -53 l-36 -34 -17 24 c-10 14 -16 27 -13 30 5 6 101 47 113 49 l8 1 -10 -17z"></path><path id="pC4ninFmZ" d="M3276 1167 l-18 -13 4 -20 3 -19 20 0 20 0 3 24 4 23 -9 9 -9 9 -18 -13z"></path><path id="pw6ehs8mk" d="M2814 1141 l-101 -6 -17 -14 c-23 -19 -46 -65 -46 -91 l0 -21 26 -24 27 -25 38 -10 38 -11 73 15 73 14 -78 1 -78 1 -24 25 -25 24 0 14 0 14 23 20 c31 29 58 41 116 54 l51 11 6 9 c3 5 4 8 2 7 -2 -1 -48 -4 -104 -7z"></path><path id="paod4isIy" d="M3740 1105 l0 -14 15 5 c8 4 15 10 15 15 l0 9 -15 0 -15 0 0 -15z"></path><path id="pDiCKYpUK" d="M2874 1066 l-6 -16 12 -15 12 -15 15 0 14 0 -3 27 -3 28 -18 3 -17 3 -6 -15z"></path><path id="pkSoJuZfm" d="M3884 1012 l-11 -7 -6 -32 c-4 -18 -5 -33 -3 -33 11 0 96 53 96 60 0 17 -55 26 -76 12z"></path><path id="pKF6id7MH" d="M1003 870 l-32 -19 -14 -28 c-8 -15 -18 -47 -22 -71 l-7 -42 -31 -17 -32 -16 -95 -5 -95 -4 -67 9 -68 10 0 -8 c0 -4 24 -29 53 -55 l53 -49 69 -33 68 -34 81 -15 81 -15 77 4 77 5 48 24 48 25 27 45 28 44 6 47 7 46 -7 36 -7 35 -26 32 -27 32 -41 18 -40 19 -40 0 -40 0 -32 -20z m155 -29 l37 -19 20 -34 19 -33 -1 -52 0 -51 -26 -45 -27 -45 -52 -26 -52 -26 -91 0 -91 0 -57 15 -57 15 -58 29 c-31 16 -68 38 -81 48 l-25 20 120 5 119 6 42 16 41 17 11 27 c5 15 15 46 21 69 l10 42 27 20 26 21 44 0 44 0 37 -19z"></path><path id="pit7Ejsay" d="M2545 803 c-38 -8 -80 -27 -114 -50 l-35 -23 -28 -41 -28 -42 0 -32 c0 -18 5 -46 11 -63 l11 -31 33 -21 32 -20 81 0 81 0 26 -12 25 -11 7 7 7 6 -21 28 -20 27 -24 7 c-13 4 -43 12 -66 18 l-43 11 -20 21 -20 22 0 23 0 24 14 27 14 27 42 24 42 23 46 -4 47 -5 39 -26 39 -27 19 0 18 0 38 36 37 35 -32 -15 -32 -16 -18 8 c-10 4 -38 19 -63 34 l-45 26 -40 5 c-22 3 -49 3 -60 0z"></path><path id="p1CWR8LrRt" d="M3015 715 l-30 -15 -33 -37 -32 -37 -11 -36 -11 -37 20 -46 20 -45 26 -18 27 -17 37 0 37 0 47 17 48 16 27 -11 c16 -6 40 -22 56 -37 l27 -26 0 15 c0 17 -26 59 -48 77 l-16 12 -74 0 -74 0 -29 29 -29 29 0 31 0 31 29 32 30 33 77 -2 78 -3 23 22 c13 12 23 25 23 29 l0 8 -29 -10 -29 -10 -39 10 c-21 6 -56 11 -78 11 l-40 0 -30 -15z"></path><path id="pejX2eldQ" d="M2576 664 c-20 -20 -20 -38 0 -58 l15 -16 19 10 c11 6 24 20 30 31 l11 20 -12 15 -11 14 -19 0 -18 0 -15 -16z"></path><path id="pRGWs4QHp" d="M3090 605 l-13 -16 11 -24 12 -25 19 0 19 0 12 14 12 15 -4 23 -3 23 -26 3 -26 3 -13 -16z"></path><path id="pNJIgCJuB" d="M1532 572 l-21 -21 -22 -51 -21 -50 -60 -40 -59 -39 -60 -22 c-33 -12 -62 -25 -64 -30 l-5 -7 62 -22 63 -23 145 -4 145 -5 64 34 64 33 34 49 33 48 0 23 0 23 -31 31 c-17 17 -51 43 -75 57 l-45 26 -63 5 -63 6 -21 -21z m164 -33 l40 -19 32 -31 32 -31 0 -19 0 -20 -42 -42 -43 -42 -40 -20 -40 -20 -135 0 -135 0 -27 8 -28 7 0 10 0 10 14 0 14 0 76 51 76 50 27 59 26 58 21 11 21 10 35 -5 c19 -3 53 -14 76 -25z"></path><path id="pt1JStqY8" d="M3930 443 c-19 -14 -63 -39 -98 -55 l-63 -30 -100 4 -100 4 6 -15 c3 -8 25 -38 48 -67 l42 -52 26 -16 26 -16 62 31 62 31 49 48 50 49 20 46 c32 74 27 80 -30 38z m-19 -70 c-14 -27 -60 -67 -115 -102 l-50 -31 -22 0 -22 0 -36 40 c-20 22 -36 43 -36 46 l0 6 36 -6 35 -7 52 11 52 11 45 24 c25 13 51 24 58 24 l13 1 -10 -17z"></path><path id="p2SbdTKpe" d="M2143 365 l-31 -13 -7 -32 -7 -32 -38 -38 -38 -38 -73 -35 -72 -35 44 -13 44 -13 100 1 100 0 73 26 73 25 34 26 34 26 6 20 6 20 -13 27 -13 27 -55 27 -55 27 -41 5 -41 5 -30 -13z m108 -36 l38 -12 31 -26 31 -26 -6 -17 -7 -18 -62 -30 -61 -30 -60 -10 c-33 -5 -79 -10 -103 -10 l-44 0 4 9 c2 5 23 24 47 42 l44 34 22 40 c11 22 24 46 28 53 l8 12 26 0 c14 0 43 -5 64 -11z"></path><path id="pTUG8Pxig" d="M3478 293 c-33 -5 -34 -10 -8 -43 l20 -25 0 -18 c0 -10 -5 -27 -10 -38 l-11 -19 9 0 c4 0 36 9 70 21 l62 21 0 11 c0 6 -19 31 -42 54 l-42 43 -11 -1 c-5 -1 -22 -4 -37 -6z"></path></g></g></svg>